<svg width="60px" viewBox="0 0 56 49"><g id="Page-2" stroke="none" stroke-width="1" fill="#FFFFFF00" fill-rule="evenodd" stroke-linecap="round" stroke-linejoin="round"><g id="A00_Step-1-Copy-152" transform="translate(-931.000000, -245.000000)" stroke="#FFFFFF"><g id="Group" transform="translate(760.000000, 193.000000)"><g id="Group-22" transform="translate(25.000000, 51.000000)"><g id="Group-21" transform="translate(122.000000, 1.000000)"><g id="12--check-sheet-paper-payment-2" transform="translate(25.000000, -0.000000)"><path d="M34.8923077,40.7076923 L36.5538462,44.0307692" id="Stroke-1"></path><g id="Group-54"><path d="M29.42346,44.198001 C28.71486,42.9873625 29.11866,41.4322041 30.32346,40.7244925 L36.86586,36.876951" id="Stroke-2"></path><path d="M50.42754,36.2737398 C49.52694,36.8037706 48.36474,36.5014122 47.83314,35.5955414 C47.30514,34.6872614 47.60754,33.5223983 48.51114,32.9923675 C49.41534,32.4599275 52.19514,33.0297106 52.19514,33.0297106 C52.19514,33.0297106 51.33114,35.7437091 50.42754,36.2737398 Z" id="Stroke-4"></path><path d="M31.3377,47.4776266 C30.7377,47.8347951 29.9619,47.6300105 29.6091,47.0264982 L28.9713,45.9327074 C28.6185,45.3255812 28.8183,44.5510135 29.4237,44.1980612 L45.9555,34.4701897 C46.1961,34.3280451 46.4835,34.2882928 46.7529,34.3575582 C47.0235,34.4280282 47.2551,34.603902 47.3955,34.8460297 L48.2463,36.3048189 C48.5427,36.8083482 48.3735,37.4552266 47.8707,37.751562 L31.3377,47.4776266 Z" id="Stroke-6"></path><path d="M49.68396,20.9637408 L31.17576,25.0696724" id="Stroke-8"></path><path d="M24.97734,14.5362745 C24.91854,14.2628268 24.96834,13.9767307 25.11714,13.7388192 C25.26894,13.5051238 25.50654,13.3382845 25.78014,13.2756445 L45.93174,8.80832838 C46.49694,8.68063915 47.06094,9.04202377 47.18454,9.61361377 L48.09414,13.7388192 C48.21894,14.3110115 47.86134,14.8747715 47.29374,15.0000515 L27.14154,19.4691745 C26.57334,19.5944545 26.01174,19.2354792 25.88694,18.6656961 L24.97734,14.5362745 Z" id="Stroke-10"></path><path d="M46.14138,4.86465854 L41.20638,5.95844931" id="Stroke-12"></path><path d="M10.074,23.2538352 L10.62,25.731729" id="Stroke-14"></path><path d="M12.54378,22.7068193 L13.08738,25.1829062" id="Stroke-16"></path><path d="M15.00876,22.1599239 L15.55476,24.6360108" id="Stroke-18"></path><path d="M17.47854,21.6108602 L18.02334,24.0887541" id="Stroke-20"></path><path d="M19.94592,21.0640251 L20.49072,23.5419189" id="Stroke-22"></path><path d="M4.99392,29.5769215 L22.26852,25.7462446" id="Stroke-24"></path><path d="M7.06116,21.3228367 L20.63316,18.3125028" id="Stroke-26"></path><path d="M4.60842,10.1753862 L47.99622,0.55593 C48.56562,0.43065 49.12422,0.792034615 49.25262,1.36001077 L53.97402,22.8256546 C54.10182,23.3978469 53.74242,23.9616069 53.17422,24.0886938 L9.78702,33.70815 C7.74462,34.1610854 5.72022,32.8649192 5.26782,30.8128569 C4.87722,29.0402654 5.79042,27.2803223 7.36602,26.5437 C7.81602,26.3346992 8.05482,25.8420115 7.94982,25.3583585 L3.24702,3.98366308 C3.17022,3.63733615 2.92782,3.35364923 2.60022,3.22355077 C2.27082,3.09646385 1.90122,3.14223923 1.61142,3.34521692 C0.39882,4.20290308 -0.25098,5.73517385 0.09042,7.2819 L5.26782,30.8128569" id="Stroke-28"></path><path d="M27.7635,15.4338335 L28.0371,16.6715758" id="Stroke-30"></path><path d="M31.46424,14.6134904 L31.73784,15.8512327" id="Stroke-32"></path><path d="M33.93048,14.066595 L34.20408,15.3043373" id="Stroke-34"></path><path d="M36.4002,13.5195792 L36.6726,14.7573215" id="Stroke-36"></path><path d="M40.10274,12.6991758 L40.37514,13.9369182" id="Stroke-38"></path><path d="M42.56892,12.1502928 L42.84252,13.3904444" id="Stroke-40"></path><path d="M45.0363,11.6054453 L45.3063,12.8431876" id="Stroke-42"></path><path d="M19.5879,13.5655955 C19.6485,13.8414524 19.5975,14.1269462 19.4487,14.3630508 C19.2981,14.5991555 19.0587,14.7659947 18.7875,14.8268278 L6.2451,17.6070801 L5.4261,13.8914439 L17.9703,11.1105893 C18.5379,10.9853093 19.0995,11.3442847 19.2255,11.9146701 L19.5879,13.5655955 Z" id="Stroke-44"></path><path d="M35.49432,24.1118827 C34.47372,24.3371458 33.46032,23.6902673 33.23592,22.6651396 C33.01032,21.638205 33.65532,20.6215096 34.67952,20.3938373 C35.70132,20.1685742 36.71292,20.8178619 36.93732,21.8423873" id="Stroke-46"></path><path d="M44.20548,19.5819265 C44.42928,20.6088612 43.78488,21.6231473 42.76248,21.8508196" id="Stroke-48"></path><path d="M37.0746,22.4605357 C36.846,21.435408 37.4946,20.4211218 38.5158,20.1934495" id="Stroke-50"></path><path d="M40.15662,21.7779404 C39.93222,20.7510058 40.57782,19.7361173 41.60082,19.5108542" id="Stroke-52"></path></g></g></g></g></g></g></g></svg>