<?xml version="1.0" encoding="iso-8859-1"?>
<!-- Generator: Adobe Illustrator 19.0.0, SVG Export Plug-In . SVG Version: 6.00 Build 0)  -->
<svg xmlns="http://www.w3.org/2000/svg" xmlns:xlink="http://www.w3.org/1999/xlink" version="1.1" id="Layer_1" x="0px" y="0px" viewBox="0 0 512.004 512.004" style="enable-background:new 0 0 512.004 512.004;" xml:space="preserve" width="512px" height="512px">
<g>
	<g>
		<g>
			<path d="M330.667,421.207c-4.736-3.456-11.392-2.432-14.912,2.325l-41.728,57.259c-0.256,0.277-0.491,0.555-0.704,0.875     c-8.213,11.456-26.453,11.456-34.667,0c-0.213-0.32-0.427-0.597-0.683-0.875L44.224,215.17     c-14.976-20.949-22.891-45.568-22.891-71.168C21.333,76.354,76.352,21.335,144,21.335c41.749,0,80.277,21.035,103.04,56.277     c3.925,6.08,13.995,6.08,17.92,0C287.723,42.37,326.251,21.335,368,21.335c67.648,0,122.667,55.019,122.667,122.667     c0,25.6-7.915,50.219-22.827,71.083l-64.171,87.957c-3.456,4.757-2.432,11.435,2.325,14.912     c4.736,3.456,11.413,2.432,14.912-2.325l64.235-88.043C502.699,202.989,512,174.082,512,144.002c0-79.403-64.597-144-144-144     c-43.904,0-84.757,19.797-112,53.632C228.757,19.799,187.904,0.002,144,0.002c-79.403,0-144,64.597-144,144     c0,30.08,9.301,58.987,26.923,83.669l194.389,266.496c0.235,0.299,0.427,0.555,0.683,0.832     c8.064,10.667,20.693,17.003,34.005,17.003s25.92-6.336,33.984-17.003c0.235-0.277,0.448-0.533,0.683-0.832l42.325-58.048     C336.448,431.362,335.424,424.685,330.667,421.207z" fill="#921c1c"/>
			<path d="M384,469.335c-11.776,0-21.333,9.557-21.333,21.333s9.557,21.333,21.333,21.333s21.333-9.557,21.333-21.333     S395.776,469.335,384,469.335z" fill="#921c1c"/>
			<path d="M501.333,341.335H354.987l-3.307-13.248c-1.173-4.757-5.461-8.085-10.347-8.085H320c-5.888,0-10.667,4.779-10.667,10.667     s4.779,10.667,10.667,10.667h12.992l25.941,103.744c3.584,14.272,16.363,24.256,31.061,24.256h79.339H480     c5.888,0,10.667-4.779,10.667-10.667s-4.779-10.667-10.667-10.667h-90.005c-4.907,0-9.152-3.328-10.347-8.085l-3.307-13.248     h96.256c15.701,0,28.971-11.243,31.573-26.752l7.68-46.165c0.533-3.072-0.341-6.251-2.368-8.64     C507.435,342.701,504.448,341.335,501.333,341.335z M483.115,396.397c-0.875,5.184-5.291,8.939-10.517,8.939H371.008     l-10.667-42.667h128.427L483.115,396.397z" fill="#921c1c"/>
			<path d="M448,490.669c0,11.776,9.557,21.333,21.333,21.333s21.333-9.557,21.333-21.333s-9.557-21.333-21.333-21.333     S448,478.893,448,490.669z" fill="#921c1c"/>
		</g>
	</g>
</g>
<g>
</g>
<g>
</g>
<g>
</g>
<g>
</g>
<g>
</g>
<g>
</g>
<g>
</g>
<g>
</g>
<g>
</g>
<g>
</g>
<g>
</g>
<g>
</g>
<g>
</g>
<g>
</g>
<g>
</g>
</svg>
