<svg width="30px" viewBox="0 0 27 32"><g id="Page-2" stroke="none" stroke-width="1" fill="#FFFFFF00" fill-rule="evenodd" stroke-linecap="round" stroke-linejoin="round"><g id="A00_Step-1-Copy-152" transform="translate(-798.000000, -247.000000)" stroke="#FFFFFF" stroke-width="1.25"><g id="Group" transform="translate(760.000000, 193.000000)"><g id="Group-22" transform="translate(25.000000, 51.000000)"><g id="Group-20" transform="translate(0.000000, 4.000000)"><g id="Group-18" transform="translate(14.000000, 0.000000)"><path d="M25.1530357,28.2107388 C25.1530357,29.1278294 24.4021016,29.8698781 23.4753709,29.8698781 L1.67657967,29.8698781 C0.750934066,29.8698781 -2.06057393e-12,29.1267555 -2.06057393e-12,28.2107388 L-2.06057393e-12,1.66021325 C-2.06057393e-12,0.74312262 0.750934066,3.02691205e-12 1.67657967,3.02691205e-12 L17.2476099,3.02691205e-12 L25.1530357,7.82319117 L25.1530357,28.2107388 Z" id="Stroke-25"></path><polygon id="Stroke-27" points="17.2475014 0.000536938298 17.2475014 7.8237281 25.1529272 7.8237281"></polygon><path d="M4.31233654,8.53495659 L12.9350563,8.53495659" id="Stroke-29"></path><path d="M4.31233654,13.5131264 L20.8404821,13.5131264" id="Stroke-31"></path><path d="M4.31233654,18.4912963 L20.8404821,18.4912963" id="Stroke-33"></path><path d="M4.31233654,23.4695735 L20.8404821,23.4695735" id="Stroke-35"></path></g></g></g></g></g></g></svg>