<svg id="Layer_5" data-name="Layer 5" xmlns="http://www.w3.org/2000/svg" viewBox="0 0 180 55"><defs><style>.cls-1,.cls-3{fill:#fff;}.cls-2{fill:#3c5fae;}.cls-3{font-size:7px;font-family:Poppins-Medium, Poppins Medium;font-weight:500;}.cls-4{letter-spacing:-0.01em;}.cls-5{letter-spacing:0em;}.cls-6{letter-spacing:0.01em;}.cls-7{letter-spacing:0em;}.cls-8{fill:none;stroke:#fff;stroke-miterlimit:10;stroke-width:0.25px;}</style></defs><rect class="cls-1" x="16.2" y="10.29" width="85.54" height="38" rx="3"/><path class="cls-1" d="M143.59,22.84c.52-3.11,2.74-4.45,4.5-4.45a4.12,4.12,0,0,1,1.37.26V23a5.27,5.27,0,0,0-1.89-.37c-1.47,0-3.91.91-3.91,6V37.1h-4V18.79h3.94Z"/><path class="cls-1" d="M154.67,18.79h4.92v3.4h-4.92v9.59c0,1.13.42,2,1.59,2a1.66,1.66,0,0,0,1.63-1.88,4.72,4.72,0,0,0-.23-1.52H161a6.21,6.21,0,0,1,.36,2.07,4.82,4.82,0,0,1-5.21,5.06c-2.74,0-5.44-1.3-5.44-6.33V23h-1.2l-1.37-.34,0-4h2.77l.73-4.75h3.1Z"/><path class="cls-2" d="M32.81,37.5V27.26H23.17V37.5H19V12.17h4.17v11.4h9.64V12.17H37V37.5Z"/><path class="cls-2" d="M50.42,18.75h4.5L44.69,45.35H40.75L44.1,36l-7-17.23h4.53l4.49,12.56Z"/><path class="cls-2" d="M70.64,11.32V37.49h-4V34.74A6.35,6.35,0,0,1,61,37.89c-4.85,0-8-4.31-8-9.63s3-9.48,8.08-9.48a6.51,6.51,0,0,1,5.63,3.11V11.32ZM61.81,34.16c2.74,0,4.89-2.07,4.89-5.69s-2-6-5-6S57,25.15,57,28.29C57,31.59,58.81,34.16,61.81,34.16Z"/><path class="cls-2" d="M75.86,23.24c.52-3.11,2.73-4.45,4.49-4.45a4.38,4.38,0,0,1,1.37.25v4.38a5.46,5.46,0,0,0-1.89-.36c-1.47,0-3.91.91-3.91,6V37.5h-4V19.19h4Z"/><path class="cls-1" d="M115,11.37a11.36,11.36,0,0,1,7.85,3l-1.66,3.47A9.72,9.72,0,0,0,115,15.5c-5.18,0-8.21,4-8.21,8.94s3,8.94,8.21,8.94a9.51,9.51,0,0,0,6.16-2.32l1.66,3.51A11.33,11.33,0,0,1,115,37.5c-7.69,0-12.45-6-12.45-13.06S107.27,11.37,115,11.37Z"/><path class="cls-1" d="M139.27,18.79V37.1h-4V34.35a6.25,6.25,0,0,1-5.63,3.15c-4.89,0-8.08-4.3-8.08-9.63,0-5.17,3.06-9.48,8.11-9.48a6.4,6.4,0,0,1,5.6,3.11V18.79Zm-8.83,15c2.74,0,4.92-2.06,4.92-5.68s-2.05-6-5-6-4.75,2.64-4.75,5.79C125.59,31.21,127.44,33.77,130.44,33.77Z"/><text class="cls-3" transform="translate(102.72 44.23)"><tspan class="cls-4">C</tspan><tspan class="cls-5" x="3.98" y="0">onne</tspan><tspan class="cls-6" x="19.1" y="0">c</tspan><tspan x="22.33" y="0">ting </tspan><tspan class="cls-7" x="35.57" y="0">D</tspan><tspan x="40.26" y="0">ots</tspan></text><circle class="cls-8" cx="160.93" cy="13" r="4.5"/><path class="cls-1" d="M160.36,11.59s0,.06,0,.08,0,0,0,.06l0,0h-.83v2.74a0,0,0,0,1,0,0s0,0,0,0l-.06,0h-.18l-.06,0,0,0V11.77h-.83l0,0,0-.06v-.16s0,0,0-.06l0,0h2l0,0s0,0,0,.06S160.36,11.56,160.36,11.59Z"/><path class="cls-1" d="M163.63,14.51a0,0,0,0,1,0,0s0,0,0,0l-.06,0h-.18l-.06,0,0,0V11.76h0l-1,2.76,0,0,0,0h-.26l0,0,0,0-1-2.76h0v2.75a0,0,0,0,1,0,0l0,0-.06,0h-.18l-.06,0s0,0,0,0a0,0,0,0,1,0,0V11.6a.17.17,0,0,1,.05-.14.16.16,0,0,1,.11-.05h.23l.13,0,.09,0a.27.27,0,0,1,.07.08.34.34,0,0,1,0,.12l.82,2.29h0l.84-2.29a1.34,1.34,0,0,1,.06-.12l.06-.08.08-.05h.4l.06,0,0,0a.28.28,0,0,1,0,.09Z"/><path class="cls-2" d="M92.55,34.13a.88.88,0,0,1,0,.15A.88.88,0,0,1,92.55,34.13ZM94.34,36c0,.08-.09.16-.13.25L94.15,36l-.05,0,.25,0a.36.36,0,0,1,0,.07S94.35,36,94.34,36Zm.94-5.46v0Zm.13,0v0h0Zm.28,1.33a.14.14,0,0,0,0-.06S95.71,31.81,95.69,31.82ZM86,36.39s9.21-.2,7.24-9.67c0,0,5.78,3.35,2.1,8.86C95.32,35.58,91.57,39.89,86,36.39Z"/><path class="cls-2" d="M85.85,32.27a.57.57,0,0,1-.11.11ZM85,34.69H84.7a1.22,1.22,0,0,0,.17-.15.09.09,0,0,1,0-.05l.13.21a.12.12,0,0,1-.05.05Zm5.31-1.56h0l0,0Zm.08.11h0v0Zm-1.07.84h0Zm-8.37-6.72s4.22,8.19,11.87,2.26c0,0-.47,6.66-7,5.78C85.77,35.4,80.25,33.92,80.94,27.36Z"/><path class="cls-2" d="M84.5,25.65l-.14,0A.37.37,0,0,1,84.5,25.65ZM82,26.09l-.13-.25.21.07.06,0-.12.22-.07,0Zm4,3.85,0,0,0,0Zm0,.13h0Zm-1.26-.52,0,.05ZM86.34,19s-5,7.72,3.91,11.43c0,0-6,2.89-8.51-3.26C81.74,27.12,80.3,21.59,86.34,19Z"/><path class="cls-2" d="M89.24,21.49a.88.88,0,0,1,0-.15Zm-1.83-1.8.12-.26a1.42,1.42,0,0,0,.07.22l0,0-.25,0a.14.14,0,0,1,0-.07Zm-.82,5.48v0S86.59,25.16,86.59,25.17Zm-.13,0v0h0Zm-.31-1.32s0,0,0,.05S86.13,23.89,86.15,23.88Zm9.6-4.79s-9.2.4-7,9.83c0,0-5.85-3.22-2.3-8.82C86.43,20.1,90.09,15.71,95.75,19.09Z"/><path class="cls-2" d="M95.46,23.12l.1-.12A.58.58,0,0,1,95.46,23.12Zm.68-2.48h.28c0,.05-.11.1-.16.16v.06l-.15-.21,0-.05A.08.08,0,0,0,96.14,20.64Zm-5.18,2h0l0,0Zm-.09-.1h0v0Zm1-.92h-.06A.07.07,0,0,1,91.87,21.59Zm8.87,6s-4.85-7.83-12-1.32c0,0,0-6.68,6.57-6.32C95.3,20,100.92,21,100.74,27.63Z"/><path class="cls-2" d="M97.12,29.4l.16,0Zm2.46-.76.16.23-.22-.05,0,0,.09-.24h.07Zm-4.44-3.32,0,0h0Zm0-.13h0Zm1.32.35a.08.08,0,0,1,0,0Zm-.33,10.73s4-8.29-5.34-10.84c0,0,5.61-3.63,8.85,2.15C99.67,27.58,101.81,32.88,96.16,36.27Z"/></svg>