<svg xmlns="http://www.w3.org/2000/svg" width="18" height="18" viewBox="0 0 21 20.984"><g data-name="Group 1674" transform="translate(-1106 -345)">
<path d="M15.971 58.013a1.471 1.471 0 0 0-2.224 0c-.52.516-1.04 1.031-1.551 1.556a.306.306 0 0 1-.428.079c-.336-.184-.695-.332-1.018-.533a16.132 16.132 0 0 1-3.889-3.54 9.214 9.214 0 0 1-1.394-2.233.32.32 0 0 1 .079-.411c.52-.5 1.027-1.018 1.538-1.534a1.477 1.477 0 0 0 0-2.277c-.406-.411-.813-.813-1.219-1.224s-.835-.843-1.259-1.259a1.481 1.481 0 0 0-2.224 0c-.524.516-1.027 1.044-1.56 1.551a2.532 2.532 0 0 0-.8 1.709 7.239 7.239 0 0 0 .558 3.121 18.933 18.933 0 0 0 3.36 5.6A20.8 20.8 0 0 0 10.828 64a9.96 9.96 0 0 0 3.815 1.11 2.8 2.8 0 0 0 2.4-.913c.446-.5.948-.953 1.42-1.429a1.487 1.487 0 0 0 .009-2.264q-1.247-1.248-2.501-2.491z" fill="#03776d" data-name="Path 253" transform="translate(1105.994 300.863)"></path>
<path d="M242.591 102.214l1.613-.275A7.238 7.238 0 0 0 238.081 96l-.227 1.621a5.594 5.594 0 0 1 4.737 4.593z" fill="#03776d" data-name="Path 254" transform="translate(878.541 253.195)"></path>
<path d="M249.8 3.4a11.89 11.89 0 0 0-6.819-3.4l-.227 1.621a10.375 10.375 0 0 1 8.779 8.508l1.613-.275A11.977 11.977 0 0 0 249.8 3.4z" fill="#03776d" data-name="Path 255" transform="translate(873.854 345)"></path>
</g>
</svg>